<?xml version="1.0" encoding="UTF-8"?>
<svg version="1.1" xmlns="http://www.w3.org/2000/svg" width="680" height="227">
<path d="M0 0 C5.14683232 0.93296054 7.03518219 2.37458984 10.03125 6.5625 C13.23932272 12.01554538 16.37750486 17.48487415 19.3359375 23.078125 C20.92551534 26.04975757 22.60488081 28.86497284 24.515625 31.640625 C29.98574534 39.65828554 31.85879972 45.48905506 31.68359375 55.2421875 C30.43921166 60.59423861 27.30732695 62.75084454 22.87890625 65.703125 C20.171875 66.0390625 20.171875 66.0390625 17.06640625 66.078125 C16.04933594 66.10648437 15.03226562 66.13484375 13.984375 66.1640625 C9.88149506 65.55508158 8.02965866 64.4251753 4.87890625 61.703125 C2.7867431 58.75439966 1.08213196 55.63869701 -0.62109375 52.453125 C-6.76057862 40.08011147 -6.76057862 40.08011147 -17.12109375 31.703125 C-20.46092356 30.92139105 -20.46092356 30.92139105 -23.93359375 30.515625 C-25.67576172 30.27779297 -25.67576172 30.27779297 -27.453125 30.03515625 C-28.77376953 29.87080078 -28.77376953 29.87080078 -30.12109375 29.703125 C-29.07928133 24.46645039 -26.09547637 20.28355952 -23.37109375 15.765625 C-22.5821875 14.42467773 -22.5821875 14.42467773 -21.77734375 13.05664062 C-15.86298595 3.19693771 -11.69538213 -0.73379651 0 0 Z " fill="#FD0E4E" transform="translate(393.12109375,65.296875)"/>
<path d="M0 0 C2 2 2 2 2.125 4.625 C2.08375 5.40875 2.0425 6.1925 2 7 C2.48210937 6.57847656 2.96421875 6.15695313 3.4609375 5.72265625 C4.09257812 5.17480469 4.72421875 4.62695312 5.375 4.0625 C6.31472656 3.24458984 6.31472656 3.24458984 7.2734375 2.41015625 C11.59056326 -1.11582203 16.67400644 -0.52158006 22 0 C25.81441109 1.19842359 28.32590093 3.02126 30.625 6.359375 C33.01248835 12.68079302 32.83624922 19.35742765 33.171875 26.0546875 C33.27242188 27.68664062 33.27242188 27.68664062 33.375 29.3515625 C33.42398438 30.33979004 33.47296875 31.32801758 33.5234375 32.34619141 C34.06112902 35.34040598 35.12192282 36.66562055 37 39 C36.9375 41.625 36.9375 41.625 36 44 C31.59398957 46.81272217 27.05621243 46.3305579 22 46.3125 C20.64648438 46.33666992 20.64648438 46.33666992 19.265625 46.36132812 C18.39421875 46.36197266 17.5228125 46.36261719 16.625 46.36328125 C15.83351563 46.36626221 15.04203125 46.36924316 14.2265625 46.37231445 C11.48510388 45.91390169 10.0799017 44.79587402 8 43 C8.76950044 38.38299737 8.76950044 38.38299737 10.02734375 36.29296875 C11.42022791 33.00934223 11.22620474 30.11278011 11.1875 26.5625 C11.17783203 24.61537109 11.17783203 24.61537109 11.16796875 22.62890625 C11.02836295 19.61277159 10.70454736 16.92528065 10 14 C7.69 14 5.38 14 3 14 C2.94199172 17.60409919 2.90640131 21.20807851 2.875 24.8125 C2.85824219 25.83666016 2.84148437 26.86082031 2.82421875 27.91601562 C2.81777344 28.89892578 2.81132812 29.88183594 2.8046875 30.89453125 C2.79421387 31.80050049 2.78374023 32.70646973 2.77294922 33.63989258 C2.83834609 36.26936448 2.83834609 36.26936448 5 39 C4.9375 41.5625 4.9375 41.5625 4 44 C-0.45830552 46.53015382 -5.02081794 46.33270772 -10 46.3125 C-10.7940625 46.32861328 -11.588125 46.34472656 -12.40625 46.36132812 C-17.0545725 46.36520173 -20.27587466 46.10343778 -24 43 C-24.5 40.4375 -24.5 40.4375 -24 38 C-23.01 37.34 -22.02 36.68 -21 36 C-19.07400783 28.75180048 -19.89516278 20.43179419 -20 13 C-20.639375 12.731875 -21.27875 12.46375 -21.9375 12.1875 C-24 11 -24 11 -25 8 C-21.78761492 4.20571886 -18.94352786 3.04850381 -14.1875 1.75 C-13.00542969 1.41484375 -11.82335937 1.0796875 -10.60546875 0.734375 C-6.92938695 -0.01438272 -3.73955727 -0.27598209 0 0 Z " fill="#000000" transform="translate(314,74)"/>
<path d="M0 0 C5.11592246 4.17493884 6.78742327 9.69859035 8 16 C8.17842083 18.70997672 8.28157275 21.31077508 8.265625 24.015625 C8.26849518 25.12124786 8.26849518 25.12124786 8.27142334 26.24920654 C8.27277483 27.79879094 8.26915142 29.34838705 8.26074219 30.89794922 C8.25008946 33.23041171 8.26064084 35.56209324 8.2734375 37.89453125 C8.29941978 61.27640671 8.29941978 61.27640671 1.53515625 69.4765625 C0 71 0 71 -3 73 C-7.31597695 72.86077494 -10.01297199 72.52641494 -13.8125 70.5 C-21.02902573 62.25254202 -19.41217404 50.34181473 -19.3515625 40.10351562 C-19.4482627 32.09754501 -20.14070396 25.59873278 -25 19 C-25.99 18.34 -26.98 17.68 -28 17 C-27.7317596 13.78111519 -27.3522088 12.34120227 -25 10.0625 C-24.01 9.381875 -23.02 8.70125 -22 8 C-21.27683594 7.50113281 -20.55367188 7.00226563 -19.80859375 6.48828125 C-7.48787501 -1.89467895 -7.48787501 -1.89467895 0 0 Z " fill="#FE084A" transform="translate(446,58)"/>
<path d="M0 0 C4.68046211 4.38562985 6.02120723 8.30552434 6.31640625 14.546875 C6.35830078 15.39121094 6.40019531 16.23554687 6.44335938 17.10546875 C6.48267578 17.97816406 6.52199219 18.85085937 6.5625 19.75 C6.60568359 20.63816406 6.64886719 21.52632812 6.69335938 22.44140625 C6.79913615 24.62745963 6.90122546 26.81362089 7 29 C8.32 29.66 9.64 30.32 11 31 C10.86210108 33.96482674 10.71055664 36.21234484 8.66796875 38.4765625 C3.92905958 42.41988838 1.16394105 43.26698692 -4.81640625 43.23828125 C-7.58780744 42.93585643 -8.91197546 41.77868757 -11 40 C-13.31393704 40.2169316 -14.76205099 40.86124038 -16.76171875 42.02734375 C-21.70293888 44.17457554 -28.20198001 43.93427862 -33.26953125 42.2421875 C-35.73423454 40.92421985 -37.66291058 39.41036973 -39.4375 37.25 C-40.58908307 32.64366773 -40.63275737 28.63772496 -38.9375 24.25 C-32.82841551 17.1555793 -24.8423606 16.93206575 -16 16 C-15.979375 14.72125 -15.95875 13.4425 -15.9375 12.125 C-15.92589844 11.40570313 -15.91429687 10.68640625 -15.90234375 9.9453125 C-15.87350758 7.91814596 -15.87350758 7.91814596 -17 6 C-21.44288181 7.39633428 -23.86524764 9.60401828 -27 13 C-28 14 -28 14 -31.4375 14.1875 C-35 14 -35 14 -37 12 C-37.5625 9.25 -37.5625 9.25 -37 6 C-29.03245422 -4.33291094 -10.78277547 -6.88262264 0 0 Z M-17 23 C-18.32 23.99 -19.64 24.98 -21 26 C-20.67 27.98 -20.34 29.96 -20 32 C-19.01 32.33 -18.02 32.66 -17 33 C-16.34 32.67 -15.68 32.34 -15 32 C-14.59270772 29.67843403 -14.25561323 27.3431213 -14 25 C-14.99 24.34 -15.98 23.68 -17 23 Z " fill="#000000" transform="translate(277,77)"/>
<path d="M0 0 C4.68046211 4.38562985 6.02120723 8.30552434 6.31640625 14.546875 C6.35830078 15.39121094 6.40019531 16.23554687 6.44335938 17.10546875 C6.48267578 17.97816406 6.52199219 18.85085937 6.5625 19.75 C6.60568359 20.63816406 6.64886719 21.52632812 6.69335938 22.44140625 C6.79913615 24.62745963 6.90122546 26.81362089 7 29 C8.32 29.66 9.64 30.32 11 31 C10.86210108 33.96482674 10.71055664 36.21234484 8.66796875 38.4765625 C3.92905958 42.41988838 1.16394105 43.26698692 -4.81640625 43.23828125 C-7.58780744 42.93585643 -8.91197546 41.77868757 -11 40 C-13.31393704 40.2169316 -14.76205099 40.86124038 -16.76171875 42.02734375 C-21.70293888 44.17457554 -28.20198001 43.93427862 -33.26953125 42.2421875 C-35.73423454 40.92421985 -37.66291058 39.41036973 -39.4375 37.25 C-40.58908307 32.64366773 -40.63275737 28.63772496 -38.9375 24.25 C-32.82841551 17.1555793 -24.8423606 16.93206575 -16 16 C-15.979375 14.72125 -15.95875 13.4425 -15.9375 12.125 C-15.92589844 11.40570313 -15.91429688 10.68640625 -15.90234375 9.9453125 C-15.87350758 7.91814596 -15.87350758 7.91814596 -17 6 C-21.44288181 7.39633428 -23.86524764 9.60401828 -27 13 C-28 14 -28 14 -31.4375 14.1875 C-35 14 -35 14 -37 12 C-37.5625 9.25 -37.5625 9.25 -37 6 C-29.03245422 -4.33291094 -10.78277547 -6.88262264 0 0 Z M-17 23 C-18.32 23.99 -19.64 24.98 -21 26 C-20.67 27.98 -20.34 29.96 -20 32 C-19.01 32.33 -18.02 32.66 -17 33 C-16.34 32.67 -15.68 32.34 -15 32 C-14.59270772 29.67843403 -14.25561323 27.3431213 -14 25 C-14.99 24.34 -15.98 23.68 -17 23 Z " fill="#000000" transform="translate(54,77)"/>
<path d="M0 0 C0.33 3.3 0.66 6.6 1 10 C4.96 10.33 8.92 10.66 13 11 C13.80688405 14.94476647 14.00000429 16.99998285 13 21 C9.04 21.33 5.08 21.66 1 22 C0.94609643 24.93774463 0.9063745 27.87450232 0.875 30.8125 C0.85824219 31.64587891 0.84148437 32.47925781 0.82421875 33.33789062 C0.81777344 34.14033203 0.81132812 34.94277344 0.8046875 35.76953125 C0.79421387 36.50792236 0.78374023 37.24631348 0.77294922 38.00708008 C0.88258521 40.31890676 0.88258521 40.31890676 3 43 C3.62648437 42.90460938 4.25296875 42.80921875 4.8984375 42.7109375 C5.71570313 42.60007813 6.53296875 42.48921875 7.375 42.375 C8.18710938 42.25898437 8.99921875 42.14296875 9.8359375 42.0234375 C10.55007812 42.01570313 11.26421875 42.00796875 12 42 C14 44 14 44 14.125 46.75 C12.48984281 51.47378743 9.20152731 53.49052746 5 56 C-1.15294839 58.0509828 -8.44484857 57.85171714 -14.5625 55.8125 C-18.27601979 53.05116477 -20.5331485 50.4005545 -22 46 C-22.08291953 44.0079697 -22.10738177 42.01326287 -22.09765625 40.01953125 C-22.09443359 38.85615234 -22.09121094 37.69277344 -22.08789062 36.49414062 C-22.07951172 35.27919922 -22.07113281 34.06425781 -22.0625 32.8125 C-22.05798828 31.58595703 -22.05347656 30.35941406 -22.04882812 29.09570312 C-22.03703065 26.06375332 -22.02056921 23.03190094 -22 20 C-24.64 20 -27.28 20 -30 20 C-30.26953125 17.21484375 -30.26953125 17.21484375 -30 14 C-28.19921875 12.12890625 -28.19921875 12.12890625 -25.6875 10.5625 C-24.77484375 9.985 -23.8621875 9.4075 -22.921875 8.8125 C-21.95765625 8.214375 -20.9934375 7.61625 -20 7 C-18.61554688 6.01 -18.61554688 6.01 -17.203125 5 C-11.14272538 0.75429631 -7.40686898 -0.84996857 0 0 Z " fill="#000000" transform="translate(145,63)"/>
<path d="M0 0 C0.66 1.98 1.32 3.96 2 6 C2.40089844 5.566875 2.80179688 5.13375 3.21484375 4.6875 C6.49345805 1.4757962 8.93355968 -0.45960759 13.625 -0.6875 C17.07010194 -0.43470242 18.04957332 0.03511443 21 2.125 C23.26157198 5.37600973 24 7.04509656 24 11 C22.87588692 14.49066692 21.73440873 17.12435882 19.375 19.9375 C15.67224049 21.59399767 11.96690652 21.81520571 8 21 C4.7109375 18.97265625 4.7109375 18.97265625 2 17 C0.83741249 26.52587787 0.83741249 26.52587787 3.55859375 35.17578125 C5.6642942 36.703332 5.6642942 36.703332 9 38 C8.8125 40.875 8.8125 40.875 8 44 C4.59233681 45.80080975 1.69344331 46.25565145 -2.125 46.265625 C-3.07890625 46.26820312 -4.0328125 46.27078125 -5.015625 46.2734375 C-6.00046875 46.26570313 -6.9853125 46.25796875 -8 46.25 C-9.47726563 46.26160156 -9.47726563 46.26160156 -10.984375 46.2734375 C-12.41523437 46.26957031 -12.41523437 46.26957031 -13.875 46.265625 C-14.73867187 46.26336914 -15.60234375 46.26111328 -16.4921875 46.25878906 C-19.33183027 45.96575739 -21.44767187 45.27068226 -24 44 C-25.5 41.625 -25.5 41.625 -26 39 C-24.75 36.6875 -24.75 36.6875 -23 35 C-22.34 35 -21.68 35 -21 35 C-20.67 27.74 -20.34 20.48 -20 13 C-22.475 12.01 -22.475 12.01 -25 11 C-25.3125 8.6875 -25.3125 8.6875 -25 6 C-18.31990601 0.21058521 -8.41813475 -0.48359498 0 0 Z " fill="#000000" transform="translate(91,74)"/>
<path d="M0 0 C1.00224609 -0.02900391 2.00449219 -0.05800781 3.03710938 -0.08789062 C10.42575963 -0.15196831 10.42575963 -0.15196831 13.67578125 2.21875 C14.36220703 3.25515625 14.36220703 3.25515625 15.0625 4.3125 C15.475 4.910625 15.8875 5.50875 16.3125 6.125 C17.38102149 9.24152101 17.24726262 12.04836043 17.0625 15.3125 C16.0625 16.3125 16.0625 16.3125 12.9375 16.75 C8.26633071 16.22260992 6.81366467 14.79676079 3.640625 11.52734375 C3.11984375 11.12644531 2.5990625 10.72554687 2.0625 10.3125 C1.0725 10.6425 0.0825 10.9725 -0.9375 11.3125 C-0.250372 14.46519966 -0.250372 14.46519966 2.35546875 15.671875 C3.78826172 16.36023438 3.78826172 16.36023438 5.25 17.0625 C10.30537989 19.72495625 14.17917256 22.29134422 17.0625 27.3125 C18.27312058 31.37163958 18.36090461 33.43483939 17 37.4375 C14.13651852 41.68653704 11.02522258 44.65825914 6.0625 46.3125 C2.44230511 46.59345068 -1.18260534 46.58996241 -4.8125 46.625 C-5.80636719 46.65400391 -6.80023438 46.68300781 -7.82421875 46.71289062 C-15.13217681 46.77648062 -15.13217681 46.77648062 -19.015625 44.5390625 C-21.75447265 41.3660073 -23.04754806 38.39009798 -23.9375 34.3125 C-23.56540698 29.94040698 -23.56540698 29.94040698 -21.9375 28.3125 C-18.81072509 27.93092747 -17.39833393 27.98164487 -14.8046875 29.84375 C-14.14726562 30.4934375 -13.48984375 31.143125 -12.8125 31.8125 C-9.94949277 34.85131766 -9.94949277 34.85131766 -5.9375 35.3125 C-6.0741222 33.39670055 -6.0741222 33.39670055 -6.9375 31.3125 C-9.10375475 29.69843656 -9.10375475 29.69843656 -11.75 28.375 C-18.78641987 24.33408459 -18.78641987 24.33408459 -20.9375 20.3125 C-22.12077876 15.82937342 -22.31241897 12.41642807 -20.8125 8 C-15.22025713 -0.01554811 -8.97120692 0.08620634 0 0 Z " fill="#000000" transform="translate(216.9375,73.6875)"/>
<path d="M0 0 C0.01981934 0.91289795 0.03963867 1.8257959 0.06005859 2.76635742 C0.13836264 6.16782472 0.22506225 9.56886604 0.31738281 12.9699707 C0.35555952 14.43928862 0.39043182 15.90869639 0.421875 17.37817383 C0.46777289 19.49593114 0.52572372 21.6130759 0.5859375 23.73046875 C0.63306885 25.63928833 0.63306885 25.63928833 0.68115234 27.58666992 C1.05900658 31.63167762 1.64895321 34.74903075 4.6875 37.5625 C6 39 6 39 6 41 C4.51079104 43.97841791 3.04543507 44.61323939 0 46 C-3.3410955 46.4124535 -6.63808911 46.37340418 -10 46.3125 C-10.88945312 46.31572266 -11.77890625 46.31894531 -12.6953125 46.32226562 C-22.76035788 46.23964212 -22.76035788 46.23964212 -26 43 C-26.3125 40.75 -26.3125 40.75 -26 38 C-25.34515625 37.31421875 -24.6903125 36.6284375 -24.015625 35.921875 C-21.17047308 31.79750749 -21.37376435 28.39639766 -21.4375 23.5 C-21.40172852 22.23736328 -21.40172852 22.23736328 -21.36523438 20.94921875 C-21.37607307 16.36083823 -21.5287756 14.5750535 -24.53515625 10.90625 C-25.34855469 10.2771875 -26.16195312 9.648125 -27 9 C-25.38533002 5.39390371 -24.44978315 4.18821861 -20.7421875 2.63671875 C-19.46601563 2.32347656 -18.18984375 2.01023437 -16.875 1.6875 C-15.61429688 1.36136719 -14.35359375 1.03523438 -13.0546875 0.69921875 C-8.70429472 -0.20194957 -4.42377901 -0.15511952 0 0 Z " fill="#000000" transform="translate(186,74)"/>
<path d="M0 0 C3.73153973 3.90509972 5.4406042 6.87260441 6.125 12.25 C5.44912046 17.75359051 3.39862651 21.15503251 -0.5546875 24.984375 C-5.41556185 28.20659766 -10.69877745 27.644685 -16.3125 26.8125 C-20.06632881 24.99119787 -22.01138198 22.26417703 -24.3125 18.8125 C-25.00521252 13.35100868 -25.79374855 6.81744335 -22.3125 2.1875 C-15.1918856 -3.44965307 -7.85885152 -5.18980761 0 0 Z " fill="#FC1855" transform="translate(377.3125,104.1875)"/>
<path d="M0 0 C1.134375 0.020625 2.26875 0.04125 3.4375 0.0625 C3.4375 2.0425 3.4375 4.0225 3.4375 6.0625 C6.4075 6.5575 6.4075 6.5575 9.4375 7.0625 C9.7675 8.0525 10.0975 9.0425 10.4375 10.0625 C10.7675 9.0725 11.0975 8.0825 11.4375 7.0625 C12.4275 7.0625 13.4175 7.0625 14.4375 7.0625 C15.0975 8.0525 15.7575 9.0425 16.4375 10.0625 C16.4375 8.7425 16.4375 7.4225 16.4375 6.0625 C17.13875 6.248125 17.84 6.43375 18.5625 6.625 C21.77050212 7.11317424 24.26649319 6.63904669 27.4375 6.0625 C28.4375 7.0625 28.4375 7.0625 28.5 10.125 C28.479375 11.094375 28.45875 12.06375 28.4375 13.0625 C29.4275 13.0625 30.4175 13.0625 31.4375 13.0625 C31.4375 11.4125 31.4375 9.7625 31.4375 8.0625 C30.7775 7.7325 30.1175 7.4025 29.4375 7.0625 C35.54704064 5.77628092 35.54704064 5.77628092 38.1875 6.625 C41.12508798 7.19619766 43.52899636 6.6574212 46.4375 6.0625 C46.9325 8.0425 46.9325 8.0425 47.4375 10.0625 C45.7875 10.7225 44.1375 11.3825 42.4375 12.0625 C44.0875 12.0625 45.7375 12.0625 47.4375 12.0625 C47.1075 13.0525 46.7775 14.0425 46.4375 15.0625 C43.5625 15.1875 43.5625 15.1875 40.4375 15.0625 C39.7775 14.4025 39.1175 13.7425 38.4375 13.0625 C38.4375 12.0725 38.4375 11.0825 38.4375 10.0625 C37.7775 10.0625 37.1175 10.0625 36.4375 10.0625 C35.7775 11.7125 35.1175 13.3625 34.4375 15.0625 C29.8175 15.0625 25.1975 15.0625 20.4375 15.0625 C20.4375 13.7425 20.4375 12.4225 20.4375 11.0625 C19.839375 11.7225 19.24125 12.3825 18.625 13.0625 C16.4375 15.0625 16.4375 15.0625 13.4375 15.0625 C13.4375 14.4025 13.4375 13.7425 13.4375 13.0625 C11.7875 13.7225 10.1375 14.3825 8.4375 15.0625 C6.9768715 12.41511084 6.4375 11.16801666 6.4375 8.0625 C5.1175 8.0625 3.7975 8.0625 2.4375 8.0625 C2.4375 9.7125 2.4375 11.3625 2.4375 13.0625 C3.7575 13.0625 5.0775 13.0625 6.4375 13.0625 C6.4375 13.7225 6.4375 14.3825 6.4375 15.0625 C4.43795254 15.10504356 2.43708364 15.10330783 0.4375 15.0625 C-0.5625 14.0625 -0.5625 14.0625 -0.625 11 C-0.604375 10.030625 -0.58375 9.06125 -0.5625 8.0625 C-1.5525 8.0625 -2.5425 8.0625 -3.5625 8.0625 C-3.500625 9.114375 -3.43875 10.16625 -3.375 11.25 C-3.57244151 15.26464401 -4.03288348 16.9908228 -6.5625 20.0625 C-8.625 20.9375 -8.625 20.9375 -10.5625 21.0625 C-11.2225 20.7325 -11.8825 20.4025 -12.5625 20.0625 C-12.5625 19.4025 -12.5625 18.7425 -12.5625 18.0625 C-10.9125 17.7325 -9.2625 17.4025 -7.5625 17.0625 C-7.2325 14.0925 -6.9025 11.1225 -6.5625 8.0625 C-7.2225 8.0625 -7.8825 8.0625 -8.5625 8.0625 C-8.52125 8.84625 -8.48 9.63 -8.4375 10.4375 C-8.5625 13.0625 -8.5625 13.0625 -10.5625 15.0625 C-13.625 15.25 -13.625 15.25 -16.5625 15.0625 C-17.5625 14.0625 -17.5625 14.0625 -17.8125 11.125 C-17.73 10.114375 -17.6475 9.10375 -17.5625 8.0625 C-14.47361478 6.00324319 -13.85314073 5.8234626 -10.375 5.9375 C-8.4878125 5.999375 -8.4878125 5.999375 -6.5625 6.0625 C-6.253125 5.258125 -5.94375 4.45375 -5.625 3.625 C-4.15215517 0.07284483 -4.15215517 0.07284483 0 0 Z M-1.5625 1.0625 C-2.2225 3.0425 -2.8825 5.0225 -3.5625 7.0625 C-2.2425 7.0625 -0.9225 7.0625 0.4375 7.0625 C0.4375 5.0825 0.4375 3.1025 0.4375 1.0625 C-0.2225 1.0625 -0.8825 1.0625 -1.5625 1.0625 Z M-13.5625 8.0625 C-14.2225 9.3825 -14.8825 10.7025 -15.5625 12.0625 C-14.0775 13.0525 -14.0775 13.0525 -12.5625 14.0625 C-11.9025 12.7425 -11.2425 11.4225 -10.5625 10.0625 C-11.5525 9.4025 -12.5425 8.7425 -13.5625 8.0625 Z M23.4375 8.0625 C23.4375 8.7225 23.4375 9.3825 23.4375 10.0625 C24.0975 10.0625 24.7575 10.0625 25.4375 10.0625 C25.4375 9.4025 25.4375 8.7425 25.4375 8.0625 C24.7775 8.0625 24.1175 8.0625 23.4375 8.0625 Z " fill="#E80644" transform="translate(235.5625,122.9375)"/>
<path d="M0 0 C0.9384375 -0.02578125 1.876875 -0.0515625 2.84375 -0.078125 C5.90162546 0.29961256 7.23418595 1.2193176 9.5 3.25 C9.3125 6.5625 9.3125 6.5625 8.5 10.25 C3.94669708 13.94186723 -0.78713786 14.42681952 -6.5 14.5625 C-7.53125 14.59988281 -8.5625 14.63726562 -9.625 14.67578125 C-13.19460487 14.14713053 -14.33629737 13.08144818 -16.5 10.25 C-16.625 7.75 -16.625 7.75 -15.5 5.25 C-10.38490275 1.1579222 -6.4148551 0.10573937 0 0 Z " fill="#000000" transform="translate(176.5,56.75)"/>
<path d="M0 0 C0.99 0.33 1.98 0.66 3 1 C2.67 2.98 2.34 4.96 2 7 C4.34058637 4.87219421 5.70700306 2.88437779 7 0 C7.66 0 8.32 0 9 0 C9 2.31 9 4.62 9 7 C9.99 6.34 10.98 5.68 12 5 C12 3.68 12 2.36 12 1 C13.98 0.67 15.96 0.34 18 0 C18.33 1.32 18.66 2.64 19 4 C19.556875 3.319375 20.11375 2.63875 20.6875 1.9375 C21.450625 1.298125 22.21375 0.65875 23 0 C25.75 0.25 25.75 0.25 28 1 C27.67 2.32 27.34 3.64 27 5 C25.68 5.33 24.36 5.66 23 6 C24.65 6 26.3 6 28 6 C27.67 6.99 27.34 7.98 27 9 C18 9 9 9 0 9 C0 6.69 0 4.38 0 2 C-0.66 1.67 -1.32 1.34 -2 1 C-1.34 0.67 -0.68 0.34 0 0 Z M14 2 C14.66 2.66 15.32 3.32 16 4 C16 3.34 16 2.68 16 2 C15.34 2 14.68 2 14 2 Z M23 2 C23.33 2.66 23.66 3.32 24 4 C24.33 3.34 24.66 2.68 25 2 C24.34 2 23.68 2 23 2 Z M13 6 C13.33 6.66 13.66 7.32 14 8 C14.66 8 15.32 8 16 8 C16 7.34 16 6.68 16 6 C15.01 6 14.02 6 13 6 Z " fill="#E80644" transform="translate(317,129)"/>
<path d="M0 0 C1.65 0 3.3 0 5 0 C5 1.65 5 3.3 5 5 C7.31 5 9.62 5 12 5 C12 3.35 12 1.7 12 0 C12.99 0 13.98 0 15 0 C15 3.63 15 7.26 15 11 C15.66 11 16.32 11 17 11 C17.103125 10.21625 17.20625 9.4325 17.3125 8.625 C18 6 18 6 21 4 C25.54054054 4.54054054 25.54054054 4.54054054 27 6 C27.1875 8.4375 27.1875 8.4375 27 11 C25 13 25 13 21.9609375 13.1953125 C20.77757812 13.17210937 19.59421875 13.14890625 18.375 13.125 C17.18648438 13.10695312 15.99796875 13.08890625 14.7734375 13.0703125 C13.85820312 13.04710937 12.94296875 13.02390625 12 13 C12 11.02 12 9.04 12 7 C9.69 7 7.38 7 5 7 C5 8.98 5 10.96 5 13 C4.01 13 3.02 13 2 13 C1.875 5.375 1.875 5.375 3 2 C2.01 2 1.02 2 0 2 C0 1.34 0 0.68 0 0 Z M21 6 C20.67 7.65 20.34 9.3 20 11 C20.99 11.33 21.98 11.66 23 12 C23.33 10.35 23.66 8.7 24 7 C23.01 6.67 22.02 6.34 21 6 Z " fill="#E80644" transform="translate(288,125)"/>
<path d="M0 0 C0 1.32 0 2.64 0 4 C-0.66 4 -1.32 4 -2 4 C-2 3.34 -2 2.68 -2 2 C-3.32 2 -4.64 2 -6 2 C-6 2.66 -6 3.32 -6 4 C-4.02 4.99 -2.04 5.98 0 7 C-0.875 11.875 -0.875 11.875 -2 13 C-4.67058851 13.14115161 -7.32432238 13.04247107 -10 13 C-10 11.68 -10 10.36 -10 9 C-9.34 9 -8.68 9 -8 9 C-7.67 9.66 -7.34 10.32 -7 11 C-5.68 11 -4.36 11 -3 11 C-5.16687491 8.72478134 -7.45620509 6.84205838 -10 5 C-9.75 3.125 -9.75 3.125 -9 1 C-5.84213022 -1.36840234 -3.69270227 -1.02575063 0 0 Z " fill="#E80644" transform="translate(217,125)"/>
<path d="M0 0 C3.22269618 3.79817765 5.74520378 7.57391854 8 12 C7.67 12.66 7.34 13.32 7 14 C6.7525 13.195625 6.505 12.39125 6.25 11.5625 C5.8375 10.716875 5.425 9.87125 5 9 C2.98491642 8.26676204 2.98491642 8.26676204 1 8 C-0.35439668 5.29120665 -0.06501451 2.99066732 0 0 Z " fill="#F37795" transform="translate(413,91)"/>
<path d="M0 0 C6.75 1.75 6.75 1.75 9 4 C9.125 6.625 9.125 6.625 9 9 C6 6 3 3 0 0 Z " fill="#F6567E" transform="translate(378,97)"/>
<path d="M0 0 C0.99 0.33 1.98 0.66 3 1 C-0.465 3.97 -0.465 3.97 -4 7 C-3.04065919 3.16263678 -2.76390737 2.40339772 0 0 Z " fill="#FE013E" transform="translate(381,68)"/>
</svg>
